<svg xmlns="http://www.w3.org/2000/svg" width="2500" height="435" viewBox="0 0.1 319.6 55.6"><path d="M6.4 12.4c0 .4 0 6 .1 8 0 .7.1 1.2.5 1.8.5.7 1.7 1 3.3 1 3.2 0 5.7-1.4 7.3-3.5 1.3-1.7 2.3-4.4 2.3-7.4 0-2.5-1.1-5.5-2.5-7.2C15.8 3.2 13.1 2 9.6 2c-.7 0-2 0-2.5.3-.5.4-.6.9-.7 1.6v8.5zM3.5 9.2c0-.9-.1-5.5-.2-6 0-.8-.4-.9-1.3-.9H.3l-.2-.2v-.9L.3 1c.4 0 1.8.1 4.6.1.8 0 3.9-.1 4.6-.1 4 0 7.4.5 10.1 2.9 2 1.8 3.4 4.5 3.4 8.3 0 3.8-1 6.2-3.1 8.6-3 3.5-7.3 3.5-9.7 3.5-2 0-4.3-.1-5.7-.1-2.7 0-3.9.1-4.4.1l-.1-.2v-.8l.2-.2h2.1c.6 0 .899-.3 1-.8.1-.7.2-8 .2-10.6V9.2zM48.3 15.9c0-5.4-3.7-8.7-6.3-8.7-.4 0-2-.3-3.7 1.5-1.601 1.6-2.4 4.1-2.4 6.1 0 6.5 4.3 8.9 6.3 8.9 5.3 0 6.1-5.6 6.1-7.8M37 23c-1.7-1.1-3.5-3.8-3.5-7.4 0-1.5.4-3.9 2.2-6.2 2.101-2.7 4.4-3.2 6.4-3.2 1.5 0 3.4.3 5.3 2 1.7 1.6 3.2 4 3.2 7.4 0 1.8-.5 3.7-1.8 5.4-1.4 2-3.5 3.5-6.8 3.5-1.1.1-3.1-.3-5-1.5M66.3 21c.1-.4 3.7-11 3.7-12.1 0-.2-.1-.6-.4-.9-.2-.3-.5-.5-.9-.5h-.6l-.1-.2v-.5l.2-.2c.2 0 1 .1 2.9.1 2 0 2.9-.1 3.1-.1l.2.2v.6l-.2.2h-.9c-.601 0-.8.5-.7 1L76.3 21c.3-.8 3.7-11.3 3.7-12.7 0-.4-.2-.8-.8-.8h-.6l-.2-.2v-.5l.2-.2c.2 0 1.1.1 2.5.1 1.3 0 2-.1 2.2-.1l.2.2v.6l-.2.2h-.6c-.4 0-.7.3-.9.7-.2.3-5.1 14.7-5.6 15.9l-.5.6c-.3 0-.399-.2-.5-.6l-4.4-13.6c-.2.7-4.5 13.4-4.6 13.7l-.5.5c-.2 0-.3-.1-.399-.4L60 8.4c-.2-.7-.6-.9-1-.9h-.8l-.2-.1v-.6l.2-.2c.2 0 .9.1 2.5.1 1.7 0 2.7-.1 2.9-.1l.2.1v.6l-.2.2h-.4c-.6 0-.8.3-.7.9L66.3 21zM92.4 9.9c0-1.5-.7-2.3-1.6-2.3h-1l-.1-.2v-.7l.1-.1h.7c.4 0 .9.1 1.7.1.8 0 1.3-.1 1.601-.1.3 0 .5.1.7.3.1.1 4.7 6.4 5 6.8.3.3 4.2 5.5 4.8 6.3h.1v-3c0-2.2 0-3.4-.1-4.7 0-1-.101-3.4-.3-3.8-.2-.6-.6-1-1.3-1h-.8l-.1-.2v-.6l.1-.1c.3 0 1.1.1 2.6.1 1.4 0 2-.1 2.3-.1l.2.2v.6l-.1.2h-.6c-.601 0-.9.4-.9 1.4-.1 1.7-.1 4.1-.1 5.7V24c0 .4 0 .6-.101.6-.3 0-.5-.3-.6-.4 0 0-1.4-1.9-2.9-3.8-1.7-2.2-3.399-4.4-3.5-4.6l-4.7-6.2h-.1v5.5c0 2.3.2 6.4.2 6.9.1 1 .2 1.4.9 1.4h.7l.2.2v.5l-.2.2c-.2 0-1.7-.1-2.3-.1-.5 0-2.1.1-2.4.1l-.1-.2v-.6l.1-.1h.8c.7 0 .899-.3 1.1-1.5 0-.5.1-3.3.1-7.7V9.9h-.1zM121.4 7.6h-.6c-.8 0-2.8 0-3.7.3-1.1.3-1.8 2.1-2.1 2.9l-.2.1-.4-.1-.1-.2c.2-.9 1.1-4.1 1.1-4.4.1-.3.1-.4.2-.4l.3.1.3.2c.4.3.7.4 1.3.4 1.2.1 2.2.2 4.5.2h1.1c2.6 0 3.6-.1 4.7-.2.5 0 .8-.1 1.2-.3l.5-.3.3-.1c.1 0 .2.1.2.4 0 .3.5 3.4.7 4.5l-.1.2-.4.1-.2-.2c-.2-.5-.9-2.4-1.7-2.8-.7-.4-2.9-.4-4.101-.4h-.7v14.8c0 .6.2 1 .8 1h1.5l.2.2v.5l-.2.2c-.2 0-1-.1-3.3-.1s-3.3.1-3.6.1l-.2-.2v-.5l.2-.2h1.6c.5 0 .8-.3.8-.6.1-.7.1-8.4.1-8.8V7.6zM153.5 15.9c0-5.4-3.7-8.7-6.3-8.7-.399 0-2-.3-3.7 1.5-1.6 1.6-2.4 4.1-2.4 6.1 0 6.5 4.3 8.9 6.3 8.9 5.2 0 6.1-5.6 6.1-7.8M142.1 23c-1.7-1.1-3.5-3.8-3.5-7.4 0-1.5.4-3.9 2.2-6.2 2.1-2.7 4.399-3.2 6.399-3.2 1.5 0 3.4.3 5.3 2 1.7 1.6 3.2 4 3.2 7.4 0 1.8-.5 3.7-1.8 5.4-1.4 2-3.5 3.5-6.8 3.5-1.099.1-3.099-.3-4.999-1.5M166.699 9.9c0-1.5-.699-2.3-1.6-2.3h-1L164 7.4v-.7l.1-.1h.701c.398 0 .898.1 1.699.1s1.301-.1 1.6-.1c.301 0 .5.1.701.3.1.1 4.699 6.4 5 6.8.299.3 4.199 5.5 4.799 6.3h.1v-3c0-2.2 0-3.4-.1-4.7 0-1-.1-3.4-.299-3.8-.201-.6-.602-1-1.301-1h-.801l-.1-.2v-.6l.1-.1c.301 0 1.102.1 2.602.1 1.398 0 2-.1 2.299-.1l.201.2v.6l-.102.2h-.6c-.6 0-.9.4-.9 1.4-.1 1.7-.1 4.1-.1 5.7V24c0 .4 0 .6-.1.6-.301 0-.5-.3-.6-.4 0 0-1.4-1.9-2.9-3.8-1.699-2.2-3.4-4.4-3.5-4.6L167.8 9.6h-.102v5.5c0 2.3.201 6.4.201 6.9.1 1 .199 1.4.9 1.4h.699l.199.2v.5l-.199.2c-.199 0-1.699-.1-2.301-.1-.5 0-2.1.1-2.398.1l-.102-.2v-.6l.102-.1h.799c.701 0 .9-.3 1.1-1.5 0-.5.102-3.3.102-7.7V9.9h-.101zM214.6 14c-.299-1-2.799-9.2-3-9.6l-.2-.5-.3.5c-.199.4-3.1 8.8-3.299 9.6h6.799zm-7.299 1.2c-.301.8-2 5.8-2.201 6.5l-.1.7c0 .5.4.7 1.1.7h1.5l.301.2v.8l-.201.3c-.398 0-1.699-.1-3.5-.1-2.299 0-2.898.1-3.398.1l-.201-.3v-.8l.301-.2h1.1c.9 0 1.4-.5 1.801-1.5.199-.5 2.5-6.6 3.398-9.2.201-.7 2.701-7.7 3-8.6.102-.3.201-.8 0-1.1L210 2.3l.301-.3c.898-.2 2.199-1.2 2.6-1.6l.4-.3c.199 0 .199.2.299.6.6 2.1 3 9.4 3.6 11.5.701 2.6 2.701 8.6 3.201 9.6.5 1.1 1.299 1.5 2.1 1.5h1l.199.2v.8l-.299.2c-.6 0-1.201-.1-3.701-.1-2.6 0-3.699.1-4.398.1l-.201-.3v-.8l.301-.2h.799c.9 0 1.102-.3.9-1.2-.199-1.2-1.5-5.4-2-6.7h-7.799v-.1zM237 16.8v3.4c0 2.3.5 3.3 2.5 3.3s3.801-1 3.801-3.9c0-2-1-3.3-2.4-3.9-1-.4-2.1-.4-3.201-.4h-.7v1.5zm0-2.4h1.199c1.301 0 2.4-.2 3-.6 1-.8 1.301-1.9 1.301-3 0-.9-.301-1.9-1.199-2.6-.801-.6-2-.8-3.201-.8h-.799l-.301.4v6.6zm-2-1c0-.9-.1-3.9-.1-4.4-.1-1.4-.4-1.5-1.5-1.5h-.701l-.199-.2v-.5l.199-.2c.4 0 1.4.1 3.102.1.799 0 2.199-.1 3-.1 1.799 0 3.398.2 4.199.7 1.301.8 1.801 1.9 1.801 3.4 0 2.5-1 3.1-2.9 4.1l.1.1c2.301.8 3.801 2.3 3.801 4.9 0 1.3-.701 3-1.801 3.7-1 .6-2.301.9-4.5.9-1.6 0-2.5-.1-3.5-.1-1.199 0-2.6.1-3 .1-.301 0-.301-.1-.301-.2v-.6l.201-.2h1.1c.699 0 .9-.3.9-1.1.1-.6.1-3.9.1-5.9v-3zM259.199 16.8v3.4c0 2.3.5 3.3 2.5 3.3s3.801-1 3.801-3.9c0-2-1-3.3-2.4-3.9-1-.4-2.1-.4-3.199-.4h-.801v1.5h.099zm0-2.4h1.301c1.301 0 2.4-.2 3-.6 1-.8 1.301-1.9 1.301-3 0-.9-.301-1.9-1.201-2.6-.9-.6-2-.8-3.199-.8h-.801l-.299.4v6.6h-.102zm-2.099-1c0-.9-.1-3.9-.1-4.4-.1-1.4-.4-1.5-1.5-1.5h-.699l-.201-.2v-.5l.201-.2c.398 0 1.398.1 3.1.1.799 0 2.199-.1 3-.1 1.799 0 3.4.2 4.199.7 1.301.8 1.801 1.9 1.801 3.4 0 2.5-1 3.1-2.9 4.1l.1.1c2.301.8 3.801 2.3 3.801 4.9 0 1.3-.701 3-1.801 3.7-1 .6-2.299.9-4.5.9-1.6 0-2.5-.1-3.5-.1-1.199 0-2.6.1-3 .1-.299 0-.299-.1-.299-.2v-.6l.198-.2h1.1c.701 0 .9-.3.9-1.1.1-.6.1-3.9.1-5.9v-3zM281.199 14.7c.201 0 2.701-.1 3-.1.701-.1.9-.3 1.102-1.1.1-.2.199-.7.199-1.2l.199-.2h.602l.1.2c-.1.4-.1 2.5-.1 2.8 0 .9.1 2.1.1 2.6l-.1.2-.5.1-.201-.2c-.1-.3-.199-.9-.299-1.2-.102-.5-.4-.9-1-1-1.102-.1-2.701-.1-3.102-.1v5.7c0 1.3.602 1.8 1.301 1.9.5.1 1.199.2 1.801.2.398 0 1.6 0 2.1-.1.4 0 1.4-.3 2.1-.9.301-.2 1.6-2 1.9-2.6l.299-.1.4.2.1.3-1.299 3.7c-.1.2-.201.4-.5.4-.201 0-2.1-.1-9.4-.1-1.801 0-2.6.1-3 .1l-.199-.2v-.7l.198-.1h.9c1.1 0 1.199-.2 1.199-1.1v-8.3c0-2.1 0-5.2-.1-5.4-.1-.8-.301-1-1.199-1h-.8l-.199-.2v-.5l.199-.1c.5 0 1.301.1 2.9.1h8c.4 0 .799-.1.9-.1l.2.1c.1.3 1.1 3.8 1.199 4l-.1.2-.4.2-.199-.1c0-.1-1.801-2.5-2.4-2.8-.5-.4-1.199-.6-1.799-.7l-4.201-.1v7.3h.099zM307.199 19.6c0 1 .102 2.6.102 2.9.1.8.398.9 1 .9h.898l.201.2v.6l-.201.2c-.299 0-1.199-.1-3.199-.1-2.1 0-2.9.1-3.1.1l-.1-.2v-.6l.2-.2h1.199c.602 0 .801-.2.801-.6 0-.4.1-2.3.1-4.6v-1.4c-.299-.6-4.199-7.7-4.9-8.5-.3-.4-.899-.6-1.2-.6h-.6l-.201-.2v-.8l.201-.1c.199 0 1.299.1 2.799.1 2.4 0 3.301-.1 3.5-.1l.201.1v.6l-.201.2h-.799c-.701 0-.801.2-.701.8.102.4 3 5.8 3.701 7.2.9-1.4 4.199-6.6 4.299-7.1.102-.4.201-1-.799-1h-.6l-.2-.2v-.5l.201-.1c.199 0 1.199.1 2.799.1 1.4 0 1.9-.1 2.1-.1l.201.1v.6l-.201.2h-.7c-.4 0-.801.2-1.199.5-.5.5-4.701 6.9-5.602 8.3v3.3zM316.9 24.2l-.6-.4-.4-.6-.1-.7.1-.7.4-.6.6-.4.699-.2.701.2.6.4.4.6.1.7-.1.7-.4.6-.6.4-.701.2-.699-.2zm1.5.3l.6-.5.4-.7c.1-.3.199-.5.199-.8s0-.6-.199-.8l-.4-.7-.699-.5c-.301-.1-.5-.2-.801-.2s-.6.1-.801.2L316 21l-.4.7c-.1.3-.199.5-.199.8s.1.6.199.8l.4.7.699.5c.201.1.5.2.801.2.301-.1.6-.1.9-.2m-1.099-3.1h.299l.301.1.1.4-.1.4-.301.2h-.299v-1.1zm-.701 0H316.901v2.1H316.6v.1h1v-.1H317.3v-.9h.299l.301.4.199.3.201.2.1.1h.4v-.1l-.201-.2-.299-.3-.4-.5.4-.2.1-.4-.1-.3-.201-.2-.199-.1H316.5v.1h.1z" fill="#F2F2F2"/><path fill="none" stroke="#F2F2F2" stroke-miterlimit="10" d="M64.8 46.4h-56M307.801 46.4h-56"/></svg>